<?xml version="1.0" encoding="utf-8"?>
<!-- Generator: Adobe Illustrator 27.2.0, SVG Export Plug-In . SVG Version: 6.00 Build 0)  -->
<svg version="1.1" id="Слой_1" xmlns="http://www.w3.org/2000/svg" xmlns:xlink="http://www.w3.org/1999/xlink" x="0px" y="0px"
	 viewBox="0 0 175 39" style="enable-background:new 0 0 175 39;" xml:space="preserve">
<style type="text/css">
	.st0{fill:#FFFFFF;}
	.st1{fill:#212529;}
	.st2{fill:#A5B7C6;}
	.st3{fill:#112B46;}
	.st4{fill:url(#SVGID_1_);}
	.st5{fill:#F9FBFC;}
</style>
<g id="OBJECTS">
	<g>
		<g id="TECH_PLACE">
			<g id="TECH_PLACE_00000134218596718830472000000003323497691776652473_">
				<path class="st0" d="M62.7,13.8H59v-3.5h11.1v3.5h-3.7v12.5h-3.7V13.8L62.7,13.8z"/>
				<path class="st0" d="M72.2,10.2h9.1v3.5H76v2.5h4.6v3.5H76v2.9h5.6v3.5h-9.3V10.2L72.2,10.2z"/>
				<path class="st0" d="M83.6,18.4c0-5.4,3.2-8.4,6.8-8.4c1.9,0,3.4,1,4.4,2.1l-2,2.7c-0.7-0.7-1.4-1.2-2.3-1.2
					c-1.7,0-3.1,1.7-3.1,4.6c0,3,1.2,4.7,3,4.7c1.1,0,2-0.6,2.6-1.4l2,2.6c-1.2,1.6-2.8,2.3-4.6,2.3C86.7,26.5,83.6,23.8,83.6,18.4z
					"/>
				<path class="st0" d="M96.9,10.2h3.7v5.9h4.2v-5.9h3.7v16h-3.7v-6.3h-4.2v6.3h-3.7V10.2z"/>
				<path class="st0" d="M115.9,10.2h5.2c3.1,0,5.7,1.3,5.7,5.3c0,3.9-2.7,5.6-5.6,5.6h-1.5v5.1h-3.7L115.9,10.2L115.9,10.2z
					 M121,17.8c1.5,0,2.2-0.9,2.2-2.3s-0.8-1.9-2.3-1.9h-1.3v4.2H121L121,17.8z"/>
				<path class="st0" d="M129,10.2h3.7v12.5h5.3v3.5h-9V10.2z"/>
				<path class="st0" d="M143,10.2h4.5l4.3,16h-3.9l-1.6-7.8c-0.4-1.5-0.7-3.5-1.1-5.1h-0.1c-0.3,1.6-0.7,3.5-1,5.1l-1.6,7.8h-3.8
					L143,10.2z M141.8,19.6h6.9v3.3h-6.9V19.6z"/>
				<path class="st0" d="M152.5,18.4c0-5.4,3.3-8.4,6.8-8.4c1.9,0,3.4,1,4.4,2.1l-2,2.7c-0.7-0.7-1.4-1.2-2.3-1.2
					c-1.7,0-3.1,1.7-3.1,4.6c0,3,1.2,4.7,3,4.7c1.1,0,2-0.6,2.6-1.4l2,2.6c-1.2,1.6-2.8,2.3-4.6,2.3
					C155.6,26.5,152.5,23.8,152.5,18.4z"/>
				<path class="st0" d="M165.7,10.2h9.1v3.5h-5.4v2.5h4.6v3.5h-4.6v2.9h5.6v3.5h-9.3V10.2z"/>
			</g>
		</g>
		<g>
			<path class="st1" d="M50.6,32.9c-0.2-0.2-0.4-0.4-0.6-0.6l-4.3-2.6V2.6c0-1.4-1-2.6-2.3-2.6H8.2C7,0,6,1.1,6,2.6v27.1l-4.8,2.6
				c-0.6,0.3-1,1-1,1.7C0.1,34.4,0,34.7,0,35.1v1.3C0,37.9,1,39,2.3,39h47.2c1.3,0,2.3-1.1,2.3-2.6v-1.3
				C51.7,34.2,51.3,33.4,50.6,32.9z"/>
			<g>
				<polygon class="st2" points="49.3,34.1 1.9,34.1 7.6,30.9 44.1,30.9 				"/>
				<path class="st3" d="M44.1,29.9c0,0.3-0.3,0.6-0.6,0.6H8.2c-0.3,0-0.6-0.3-0.6-0.6V2.6C7.7,2.3,7.9,2,8.2,2h35.3
					c0.3,0,0.6,0.3,0.6,0.6V29.9z"/>
				
					<linearGradient id="SVGID_1_" gradientUnits="userSpaceOnUse" x1="20.567" y1="-308.3707" x2="32.6126" y2="-335.1795" gradientTransform="matrix(1 0 0 -1 0 -303.89)">
					<stop  offset="0" style="stop-color:#3887FE"/>
					<stop  offset="1" style="stop-color:#8338EA"/>
				</linearGradient>
				<rect x="9.1" y="4.1" class="st4" width="33.5" height="24.3"/>
				<path class="st3" d="M50.1,35.2v1.3c0,0.3-0.3,0.6-0.6,0.6H2.3c-0.3,0-0.6-0.3-0.6-0.6v-1.3c0-0.3,0.3-0.6,0.6-0.6h18.7l0.8,0.6
					c0.3,0.2,0.6,0.3,0.9,0.3H29c0.3,0,0.7-0.1,0.9-0.3l0.8-0.6h18.7C49.8,34.5,50.1,34.8,50.1,35.2z"/>
				<g>
					<g>
						<g>
							<polygon class="st5" points="27.1,28.4 26.5,28.4 26.5,21.6 30.4,17.2 30.4,9 31.1,9 31.1,17.4 27.1,21.9 							"/>
						</g>
						<g>
							<polygon class="st5" points="30.6,28.4 30,28.4 30,23.5 32.7,20.3 32.7,17.8 33.4,17.8 33.4,20.6 30.6,23.8 							"/>
						</g>
						<g>
							<rect x="28" y="13.4" class="st5" width="0.7" height="6.6"/>
						</g>
						<g>
							<path class="st5" d="M28.3,13.8c-0.6,0-1.1-0.6-1.1-1.3s0.5-1.3,1.1-1.3c0.6,0,1.1,0.6,1.1,1.3S29,13.8,28.3,13.8z M28.3,12
								c-0.3,0-0.5,0.2-0.5,0.6c0,0.3,0.2,0.6,0.5,0.6c0.3,0,0.5-0.2,0.5-0.6C28.8,12.2,28.6,12,28.3,12z"/>
						</g>
						<g>
							<path class="st5" d="M33.1,18.2c-0.6,0-1.1-0.6-1.1-1.3c0-0.7,0.5-1.3,1.1-1.3c0.6,0,1.1,0.6,1.1,1.3
								C34.2,17.6,33.7,18.2,33.1,18.2z M33.1,16.4c-0.3,0-0.5,0.2-0.5,0.6c0,0.3,0.2,0.6,0.5,0.6c0.3,0,0.5-0.2,0.5-0.6
								C33.5,16.6,33.3,16.4,33.1,16.4z"/>
						</g>
						<g>
							<path class="st5" d="M30.7,9.3c-0.6,0-1.1-0.6-1.1-1.3s0.5-1.3,1.1-1.3c0.6,0,1.1,0.6,1.1,1.3S31.3,9.3,30.7,9.3z M30.7,7.5
								c-0.3,0-0.5,0.2-0.5,0.6c0,0.3,0.2,0.6,0.5,0.6c0.3,0,0.5-0.2,0.5-0.6C31.2,7.7,31,7.5,30.7,7.5z"/>
						</g>
					</g>
					<g>
						<g>
							<polygon class="st5" points="25.3,28.4 24.6,28.4 24.6,21.9 20.7,17.4 20.7,9 21.4,9 21.4,17.2 25.3,21.6 							"/>
						</g>
						<g>
							<polygon class="st5" points="21.8,28.4 21.2,28.4 21.2,23.8 18.4,20.6 18.4,17.8 19,17.8 19,20.3 21.8,23.5 							"/>
						</g>
						<g>
							<rect x="23.1" y="13.4" class="st5" width="0.7" height="6.6"/>
						</g>
						<g>
							<path class="st5" d="M23.4,13.8c-0.6,0-1.1-0.6-1.1-1.3s0.5-1.3,1.1-1.3s1.1,0.6,1.1,1.3S24,13.8,23.4,13.8z M23.4,12
								c-0.3,0-0.5,0.2-0.5,0.6c0,0.3,0.2,0.6,0.5,0.6c0.3,0,0.5-0.2,0.5-0.6C23.9,12.2,23.7,12,23.4,12z"/>
						</g>
						<g>
							<path class="st5" d="M18.7,18.2c-0.6,0-1.1-0.6-1.1-1.3c0-0.7,0.5-1.3,1.1-1.3c0.6,0,1.1,0.6,1.1,1.3
								C19.8,17.6,19.3,18.2,18.7,18.2z M18.7,16.4c-0.3,0-0.5,0.2-0.5,0.6c0,0.3,0.2,0.6,0.5,0.6c0.3,0,0.5-0.2,0.5-0.6
								C19.2,16.6,19,16.4,18.7,16.4z"/>
						</g>
						<g>
							<path class="st5" d="M21,9.3c-0.6,0-1.1-0.6-1.1-1.3s0.5-1.3,1.1-1.3s1.1,0.6,1.1,1.3S21.7,9.3,21,9.3z M21,7.5
								c-0.3,0-0.5,0.2-0.5,0.6c0,0.3,0.2,0.6,0.5,0.6s0.5-0.2,0.5-0.6C21.5,7.7,21.3,7.5,21,7.5z"/>
						</g>
					</g>
				</g>
			</g>
		</g>
	</g>
</g>
</svg>
