<svg width="20" height="20" viewBox="0 0 20 20" fill="none" xmlns="http://www.w3.org/2000/svg">
<g clip-path="url(#clip0_53_305)">
<path d="M19.8539 19.1463L14.8539 14.1463C14.8516 14.144 14.8486 14.1433 14.8463 14.1413C16.1819 12.64 17.0002 10.668 17.0002 8.5C17.0002 3.80566 13.1946 0 8.50024 0C3.80591 0 0.000244141 3.80566 0.000244141 8.5C0.000244141 13.1943 3.80591 17 8.50024 17C10.6683 17 12.6399 16.1817 14.1416 14.8457C14.1439 14.848 14.1446 14.851 14.1466 14.8533L19.1466 19.8533C19.2442 19.9513 19.3722 20 19.5002 20C19.6283 20 19.7563 19.9513 19.8539 19.8537C20.0489 19.6583 20.0489 19.3417 19.8539 19.1463ZM8.50024 16C4.36489 16 1.00024 12.6354 1.00024 8.5C1.00024 4.36465 4.36489 1 8.50024 1C12.6356 1 16.0002 4.36465 16.0002 8.5C16.0002 12.6354 12.6356 16 8.50024 16Z" fill="black"/>
</g>
<defs>
<clipPath id="clip0_53_305">
<rect width="20" height="20" fill="white"/>
</clipPath>
</defs>
</svg>
